#N canvas 661 124 586 372 12;
#X text 79 20 síntesis por modulación;
#X floatatom 79 53 5 20 20000 0 - - - 0;
#X obj 91 165 *~;
#X obj 158 131 osc~ 1;
#X obj 79 87 osc~ 400;
#X floatatom 171 88 5 0 20000 0 - - - 0;
#X obj 91 200 *~;
#X floatatom 136 181 5 0 1 0 - - - 0;
#X obj 91 235 dac~;
#X floatatom 415 96 5 0 0 0 - - - 0;
#X obj 416 145 *~ 140;
#X floatatom 490 105 5 0 0 0 - - - 0;
#X obj 399 190 +~;
#X floatatom 329 137 5 20 20000 0 - - - 0;
#X obj 399 215 osc~;
#X obj 425 255 *~;
#X floatatom 454 216 5 0 1 0 - - - 0;
#X obj 426 300 dac~;
#X text 326 110 carrier;
#X text 415 67 moduladora;
#X obj 416 120 osc~ 1;
#X connect 1 0 4 0;
#X connect 2 0 6 0;
#X connect 3 0 2 1;
#X connect 4 0 2 0;
#X connect 5 0 3 0;
#X connect 6 0 8 0;
#X connect 6 0 8 1;
#X connect 7 0 6 1;
#X connect 9 0 20 0;
#X connect 10 0 12 1;
#X connect 11 0 10 1;
#X connect 12 0 14 0;
#X connect 13 0 12 0;
#X connect 14 0 15 0;
#X connect 15 0 17 0;
#X connect 15 0 17 1;
#X connect 16 0 15 1;
#X connect 20 0 10 0;
